HIERARCHY
ROOT Hips
{
	OFFSET 	 0.0	 0.0	 0.0
	CHANNELS 6 Xposition Yposition Zposition Xrotation Yrotation Zrotation 
	JOINT Spine
	{
		OFFSET 	 15.3169	 0.0	 -0.012192
		CHANNELS 3 Xrotation Yrotation Zrotation 
		JOINT Spine_1
		{
			OFFSET 	 15.3176	 0.0	 -0.012192
			CHANNELS 3 Xrotation Yrotation Zrotation 
			JOINT Neck
			{
				OFFSET 	 19.9142	 -1e-06	 1.563377
				CHANNELS 3 Xrotation Yrotation Zrotation 
				JOINT Head
				{
					OFFSET 	 6.926521	 0.0	 0.0
					CHANNELS 3 Xrotation Yrotation Zrotation 
					End Site
					{
						OFFSET 	 20.766598	 0.0	 0.0
					}
				}
				JOINT LeftShoulder
				{
					OFFSET 	 -6.201691	 -7.28423	 0.708832
					CHANNELS 3 Xrotation Yrotation Zrotation 
					JOINT LeftArm
					{
						OFFSET 	 14.107998	 1.3e-05	 0.0
						CHANNELS 3 Xrotation Yrotation Zrotation 
						JOINT LeftForeArm
						{
							OFFSET 	 28.5802	 0.0	 0.0
							CHANNELS 3 Xrotation Yrotation Zrotation 
							JOINT LeftHand
							{
								OFFSET 	 27.091896	 0.0	 0.0
								CHANNELS 3 Xrotation Yrotation Zrotation 
								JOINT Bip01_L_Finger0
								{
									OFFSET 	 2.676086	 3.19825	 0.628212
									CHANNELS 3 Xrotation Yrotation Zrotation 
									JOINT Bip01_L_Finger01
									{
										OFFSET 	 2.82782	 0.0	 0.0
										CHANNELS 3 Xrotation Yrotation Zrotation 
										JOINT Bip01_L_Finger02
										{
											OFFSET 	 3.100327	 0.0	 0.0
											CHANNELS 3 Xrotation Yrotation Zrotation 
											End Site
											{
												OFFSET 	 2.683968	 0.0	 0.0
											}
										}
									}
								}
								JOINT Bip01_L_Finger1
								{
									OFFSET 	 9.438972	 2.24244	 -0.203926
									CHANNELS 3 Xrotation Yrotation Zrotation 
									JOINT Bip01_L_Finger11
									{
										OFFSET 	 3.12896	 0.0	 0.0
										CHANNELS 3 Xrotation Yrotation Zrotation 
										JOINT Bip01_L_Finger12
										{
											OFFSET 	 2.379051	 0.0	 0.0
											CHANNELS 3 Xrotation Yrotation Zrotation 
											End Site
											{
												OFFSET 	 2.09993	 0.0	 0.0
											}
										}
									}
								}
								JOINT Bip01_L_Finger2
								{
									OFFSET 	 9.55928	 -0.145352	 -0.186424
									CHANNELS 3 Xrotation Yrotation Zrotation 
									JOINT Bip01_L_Finger21
									{
										OFFSET 	 3.801407	 0.0	 0.0
										CHANNELS 3 Xrotation Yrotation Zrotation 
										JOINT Bip01_L_Finger22
										{
											OFFSET 	 2.848793	 0.0	 0.0
											CHANNELS 3 Xrotation Yrotation Zrotation 
											End Site
											{
												OFFSET 	 2.01886	 0.0	 0.0
											}
										}
									}
								}
								JOINT Bip01_L_Finger3
								{
									OFFSET 	 8.993629	 -2.30169	 0.226974
									CHANNELS 3 Xrotation Yrotation Zrotation 
									JOINT Bip01_L_Finger31
									{
										OFFSET 	 3.369652	 0.0	 0.0
										CHANNELS 3 Xrotation Yrotation Zrotation 
										JOINT Bip01_L_Finger32
										{
											OFFSET 	 2.444229	 0.0	 0.0
											CHANNELS 3 Xrotation Yrotation Zrotation 
											End Site
											{
												OFFSET 	 2.057808	 0.0	 0.0
											}
										}
									}
								}
								JOINT Bip01_L_Finger4
								{
									OFFSET 	 8.023811	 -3.97473	 1.201897
									CHANNELS 3 Xrotation Yrotation Zrotation 
									JOINT Bip01_L_Finger41
									{
										OFFSET 	 2.908783	 0.0	 0.0
										CHANNELS 3 Xrotation Yrotation Zrotation 
										JOINT Bip01_L_Finger42
										{
											OFFSET 	 1.535797	 0.0	 0.0
											CHANNELS 3 Xrotation Yrotation Zrotation 
											End Site
											{
												OFFSET 	 1.630142	 0.0	 0.0
											}
										}
									}
								}
							}
						}
					}
				}
				JOINT RightShoulder
				{
					OFFSET 	 -6.20549	 7.280139	 0.70887
					CHANNELS 3 Xrotation Yrotation Zrotation 
					JOINT RightArm
					{
						OFFSET 	 14.107998	 -1e-05	 0.0
						CHANNELS 3 Xrotation Yrotation Zrotation 
						JOINT RightForeArm
						{
							OFFSET 	 28.5802	 -1.9e-05	 0.0
							CHANNELS 3 Xrotation Yrotation Zrotation 
							JOINT RightHand
							{
								OFFSET 	 27.092003	 0.0	 0.0
								CHANNELS 3 Xrotation Yrotation Zrotation 
								JOINT Bip01_R_Finger0
								{
									OFFSET 	 2.676079	 -3.19825	 0.628212
									CHANNELS 3 Xrotation Yrotation Zrotation 
									JOINT Bip01_R_Finger01
									{
										OFFSET 	 2.82782	 0.0	 0.0
										CHANNELS 3 Xrotation Yrotation Zrotation 
										JOINT Bip01_R_Finger02
										{
											OFFSET 	 3.100342	 0.0	 0.0
											CHANNELS 3 Xrotation Yrotation Zrotation 
											End Site
											{
												OFFSET 	 2.68396	 0.0	 0.0
											}
										}
									}
								}
								JOINT Bip01_R_Finger1
								{
									OFFSET 	 9.438957	 -2.242439	 -0.203918
									CHANNELS 3 Xrotation Yrotation Zrotation 
									JOINT Bip01_R_Finger11
									{
										OFFSET 	 3.12896	 0.0	 0.0
										CHANNELS 3 Xrotation Yrotation Zrotation 
										JOINT Bip01_R_Finger12
										{
											OFFSET 	 2.379051	 0.0	 0.0
											CHANNELS 3 Xrotation Yrotation Zrotation 
											End Site
											{
												OFFSET 	 2.099922	 0.0	 0.0
											}
										}
									}
								}
								JOINT Bip01_R_Finger2
								{
									OFFSET 	 9.559288	 0.145353	 -0.186417
									CHANNELS 3 Xrotation Yrotation Zrotation 
									JOINT Bip01_R_Finger21
									{
										OFFSET 	 3.801407	 0.0	 0.0
										CHANNELS 3 Xrotation Yrotation Zrotation 
										JOINT Bip01_R_Finger22
										{
											OFFSET 	 2.848793	 0.0	 0.0
											CHANNELS 3 Xrotation Yrotation Zrotation 
											End Site
											{
												OFFSET 	 2.01886	 0.0	 0.0
											}
										}
									}
								}
								JOINT Bip01_R_Finger3
								{
									OFFSET 	 8.993629	 2.301691	 0.226974
									CHANNELS 3 Xrotation Yrotation Zrotation 
									JOINT Bip01_R_Finger31
									{
										OFFSET 	 3.369652	 0.0	 0.0
										CHANNELS 3 Xrotation Yrotation Zrotation 
										JOINT Bip01_R_Finger32
										{
											OFFSET 	 2.444221	 0.0	 0.0
											CHANNELS 3 Xrotation Yrotation Zrotation 
											End Site
											{
												OFFSET 	 2.057823	 0.0	 0.0
											}
										}
									}
								}
								JOINT Bip01_R_Finger4
								{
									OFFSET 	 8.023811	 3.97473	 1.20192
									CHANNELS 3 Xrotation Yrotation Zrotation 
									JOINT Bip01_R_Finger41
									{
										OFFSET 	 2.908783	 0.0	 0.0
										CHANNELS 3 Xrotation Yrotation Zrotation 
										JOINT Bip01_R_Finger42
										{
											OFFSET 	 1.535797	 0.0	 0.0
											CHANNELS 3 Xrotation Yrotation Zrotation 
											End Site
											{
												OFFSET 	 1.630142	 0.0	 0.0
											}
										}
									}
								}
							}
						}
					}
				}
			}
		}
	}
	JOINT LeftUpLeg
	{
		OFFSET 	 -12.021299	 -8.83685	 -0.372498
		CHANNELS 3 Xrotation Yrotation Zrotation 
		JOINT LeftLeg
		{
			OFFSET 	 39.9035	 0.0	 0.0
			CHANNELS 3 Xrotation Yrotation Zrotation 
			JOINT LeftFoot
			{
				OFFSET 	 39.6689	 0.0	 0.0
				CHANNELS 3 Xrotation Yrotation Zrotation 
				JOINT Bip01_L_Toe0
				{
					OFFSET 	 10.162399	 -2e-06	 13.629601
					CHANNELS 3 Xrotation Yrotation Zrotation 
					End Site
					{
						OFFSET 	 8.38147	 0.0	 0.0
					}
				}
			}
		}
	}
	JOINT RightUpLeg
	{
		OFFSET 	 -12.021299	 8.836849	 -0.372444
		CHANNELS 3 Xrotation Yrotation Zrotation 
		JOINT RightLeg
		{
			OFFSET 	 39.9035	 0.0	 0.0
			CHANNELS 3 Xrotation Yrotation Zrotation 
			JOINT RightFoot
			{
				OFFSET 	 39.6689	 0.0	 0.0
				CHANNELS 3 Xrotation Yrotation Zrotation 
				JOINT Bip01_R_Toe0
				{
					OFFSET 	 10.162399	 -2e-06	 13.629601
					CHANNELS 3 Xrotation Yrotation Zrotation 
					End Site
					{
						OFFSET 	 8.38147	 0.0	 0.0
					}
				}
			}
		}
	}
}
MOTION
Frames: 6
Frame Time: 0.013889
9.05853678636	91.1701225528	-23.2625280226	-178.129637147	17.6841944166	-89.1622132498	1.99361029934	-1.27020806231	2.23694141963	-1.99988931831e-06	-1.33103028955e-12	1.09670868306e-12	3.27836910831	-21.6059075034	2.42695075719	-0.527929231987	4.57916393898	-2.48318893481	171.913096989	-20.3267746545	107.773657747	38.8220412249	29.8157772166	37.9246948042	-1.00780516952e-06	39.3116415874	9.00080864374e-06	-102.684601193	1.9804545007	2.65683379645	-0.0	0.0	0.0	-0.0	0.0	0.0	-0.0	0.0	0.0	-0.0	0.0	0.0	-0.0	0.0	0.0	-0.0	0.0	0.0	-0.0	0.0	0.0	-0.0	0.0	0.0	-0.0	0.0	0.0	-0.0	0.0	0.0	-0.0	0.0	0.0	-0.0	0.0	0.0	-0.0	0.0	0.0	-0.0	0.0	0.0	-0.0	0.0	0.0	-169.58862809	-20.6442800265	-108.214429841	-36.5375736039	22.5891036123	-38.2618046161	-4.0137358817e-06	42.3911157138	7.00112569153e-06	110.051637605	8.83625563749	-3.55619043376	-0.0	0.0	0.0	-0.0	0.0	0.0	-0.0	0.0	0.0	-0.0	0.0	0.0	-0.0	0.0	0.0	-0.0	0.0	0.0	-0.0	0.0	0.0	-0.0	0.0	0.0	-0.0	0.0	0.0	-0.0	0.0	0.0	-0.0	0.0	0.0	-0.0	0.0	0.0	-0.0	0.0	0.0	-0.0	0.0	0.0	-0.0	0.0	0.0	14.944327948	19.2399297156	-179.515450509	-3.99996002527e-06	47.3508493369	8.99996777098e-06	-1.63708823155	-12.9971332319	7.26844767683	-0.0	0.0	0.0	-16.3755291683	-1.08749493839	-178.430524665	1.99984514302e-06	15.1132669608	2.00000544698e-06	2.2910108391	-19.3814350365	0.716533662963	-0.0	0.0	0.0	
9.4060345846	91.1287326488	-24.1910543283	-178.08483459	18.0996276839	-89.0783487714	2.14871165016	-1.2702284148	2.20093609989	-0.0	9.99928155261e-07	6.51418241677e-13	3.42037908778	-21.7309796016	2.241834433	-0.46938753905	4.67852174603	-2.52763884729	171.875534526	-20.3101489191	107.742099075	38.8561043615	29.7663659396	37.9465244731	-4.00756330169e-06	39.2793361049	8.00088387476e-06	-102.614891626	1.93577735486	2.60967165093	-0.0	0.0	0.0	-0.0	0.0	0.0	-0.0	0.0	0.0	-0.0	0.0	0.0	-0.0	0.0	0.0	-0.0	0.0	0.0	-0.0	0.0	0.0	-0.0	0.0	0.0	-0.0	0.0	0.0	-0.0	0.0	0.0	-0.0	0.0	0.0	-0.0	0.0	0.0	-0.0	0.0	0.0	-0.0	0.0	0.0	-0.0	0.0	0.0	-169.61418174	-20.689290546	-108.2353139	-36.4815563711	22.6046778351	-38.1929750088	-8.01390911621e-06	42.6417302636	9.00095847464e-06	110.056977641	9.00976428337	-3.65947149704	-0.0	0.0	0.0	-0.0	0.0	0.0	-0.0	0.0	0.0	-0.0	0.0	0.0	-0.0	0.0	0.0	-0.0	0.0	0.0	-0.0	0.0	0.0	-0.0	0.0	0.0	-0.0	0.0	0.0	-0.0	0.0	0.0	-0.0	0.0	0.0	-0.0	0.0	0.0	-0.0	0.0	0.0	-0.0	0.0	0.0	-0.0	0.0	0.0	14.9665361914	19.8313972664	179.829918489	-2.99999736444e-06	45.6527130455	9.99985101334e-06	-1.06191270167	-13.5109911334	6.8251454623	-0.0	0.0	0.0	-16.3910143485	-2.08990398931	-178.744567864	2.99977442665e-06	14.5331958736	2.00000236217e-06	1.85501455094	-19.6256859222	0.736793561283	-0.0	0.0	0.0	
9.75322783791	91.0607314752	-25.1155756432	-178.032390719	18.5032600631	-89.018884308	2.29469475893	-1.2729352104	2.18311667169	-1.99987291482e-06	-9.19328439632e-12	-2.62009450238e-12	3.55782513933	-21.8572164598	2.05268027464	-0.405329003642	4.77537355953	-2.57152089608	171.842785315	-20.2897653811	107.718762824	38.8882788592	29.718793941	37.956125673	-2.00773388817e-06	39.2376348559	9.00080190745e-06	-102.528879909	1.86734046458	2.55570323122	-0.0	0.0	0.0	-0.0	0.0	0.0	-0.0	0.0	0.0	-0.0	0.0	0.0	-0.0	0.0	0.0	-0.0	0.0	0.0	-0.0	0.0	0.0	-0.0	0.0	0.0	-0.0	0.0	0.0	-0.0	0.0	0.0	-0.0	0.0	0.0	-0.0	0.0	0.0	-0.0	0.0	0.0	-0.0	0.0	0.0	-0.0	0.0	0.0	-169.648977264	-20.7081830864	-108.267650408	-36.4309149455	22.6567383553	-38.1279074271	-3.01473071413e-06	42.8547403346	1.10008520809e-05	110.058567695	9.1488468184	-3.75536050439	-0.0	0.0	0.0	-0.0	0.0	0.0	-0.0	0.0	0.0	-0.0	0.0	0.0	-0.0	0.0	0.0	-0.0	0.0	0.0	-0.0	0.0	0.0	-0.0	0.0	0.0	-0.0	0.0	0.0	-0.0	0.0	0.0	-0.0	0.0	0.0	-0.0	0.0	0.0	-0.0	0.0	0.0	-0.0	0.0	0.0	-0.0	0.0	0.0	15.0490705935	20.3437146778	179.20686916	-2.99996355758e-06	43.8095935439	8.99986313605e-06	-0.531330666423	-13.9720150029	6.33615217116	-0.0	0.0	0.0	-16.3875858227	-3.06993766694	-179.049308269	-0.0	14.0425172306	1.99999566659e-06	1.47118790821	-19.9135481973	0.751076336792	-0.0	0.0	0.0	
10.0918814219	90.9821177439	-26.0691950479	-177.987275648	18.9052279165	-88.9789406674	2.43803167059	-1.27101904013	2.17903422315	-3.99973466165e-06	-1.26727423536e-11	-3.03415875836e-12	3.69366800218	-21.9704610837	1.86955716887	-0.346667854699	4.86492609013	-2.62718279609	171.816972423	-20.2627442032	107.703089737	38.9150647069	29.6730205472	37.9706978169	-7.8551006871e-09	39.1699328396	6.00103332173e-06	-102.368758903	1.79749036754	2.4794871214	-0.0	0.0	0.0	-0.0	0.0	0.0	-0.0	0.0	0.0	-0.0	0.0	0.0	-0.0	0.0	0.0	-0.0	0.0	0.0	-0.0	0.0	0.0	-0.0	0.0	0.0	-0.0	0.0	0.0	-0.0	0.0	0.0	-0.0	0.0	0.0	-0.0	0.0	0.0	-0.0	0.0	0.0	-0.0	0.0	0.0	-0.0	0.0	0.0	-169.693821507	-20.7020096768	-108.301710264	-36.3823984828	22.7285473298	-38.0634384646	-1.00146107112e-05	43.036553567	9.000955913e-06	110.020426824	9.29544737891	-3.83425664587	-0.0	0.0	0.0	-0.0	0.0	0.0	-0.0	0.0	0.0	-0.0	0.0	0.0	-0.0	0.0	0.0	-0.0	0.0	0.0	-0.0	0.0	0.0	-0.0	0.0	0.0	-0.0	0.0	0.0	-0.0	0.0	0.0	-0.0	0.0	0.0	-0.0	0.0	0.0	-0.0	0.0	0.0	-0.0	0.0	0.0	-0.0	0.0	0.0	15.2059846535	20.8008885698	178.619541285	-1.00007006619e-06	41.8317850895	7.99990146266e-06	-0.0725277748586	-14.3528574346	5.67956726748	-0.0	0.0	0.0	-16.3476196038	-4.01775162468	-179.341387467	-0.0	13.6290332833	1.99999248005e-06	1.14601747854	-20.2330666764	0.793905572871	-0.0	0.0	0.0	
10.4681799976	90.8885187757	-27.0688432018	-177.940454078	19.2887090276	-88.960856971	2.57014342659	-1.2610055361	2.19027878564	-9.99950965468e-07	9.99926091676e-07	-6.92544979685e-12	3.81759089651	-22.0891383029	1.69076179332	-0.292651999428	4.95731452478	-2.68905134875	171.799409469	-20.2391107941	107.695386167	38.9220409048	29.6170116639	37.9857826282	-5.00745104564e-06	39.0854332188	9.00077072555e-06	-102.140676099	1.695790505	2.3910504636	-0.0	0.0	0.0	-0.0	0.0	0.0	-0.0	0.0	0.0	-0.0	0.0	0.0	-0.0	0.0	0.0	-0.0	0.0	0.0	-0.0	0.0	0.0	-0.0	0.0	0.0	-0.0	0.0	0.0	-0.0	0.0	0.0	-0.0	0.0	0.0	-0.0	0.0	0.0	-0.0	0.0	0.0	-0.0	0.0	0.0	-0.0	0.0	0.0	-169.727620153	-20.6981043103	-108.336062496	-36.3344934823	22.7789904049	-38.0167867009	-7.01516044493e-06	43.1917682654	8.00104234683e-06	109.98799432	9.4017824354	-3.90439800091	-0.0	0.0	0.0	-0.0	0.0	0.0	-0.0	0.0	0.0	-0.0	0.0	0.0	-0.0	0.0	0.0	-0.0	0.0	0.0	-0.0	0.0	0.0	-0.0	0.0	0.0	-0.0	0.0	0.0	-0.0	0.0	0.0	-0.0	0.0	0.0	-0.0	0.0	0.0	-0.0	0.0	0.0	-0.0	0.0	0.0	-0.0	0.0	0.0	15.3841735141	21.1871467074	178.071883202	-1.99993888409e-06	39.8664717199	7.99984457514e-06	0.311698047537	-14.6048371011	4.96705873126	-0.0	0.0	0.0	-16.2772855525	-4.94902753104	-179.619997377	-0.0	13.2767456169	1.99998896779e-06	0.897371491235	-20.5539763336	0.865609256806	-0.0	0.0	0.0	
10.8415499174	90.764716817	-28.0890064618	-177.88958873	19.6446991056	-88.9650409871	2.68906734957	-1.23634648601	2.20018372733	-0.0	6.52554039175e-13	1.55760869583e-13	3.93438896198	-22.212059409	1.53091918489	-0.238194976308	5.04617164564	-2.74820637522	171.789715848	-20.2078958675	107.693283082	38.9490418434	29.5843707877	37.9986468803	-4.00747918994e-06	38.9785278218	1.00006911312e-05	-101.853962061	1.61177986893	2.30803058079	-0.0	0.0	0.0	-0.0	0.0	0.0	-0.0	0.0	0.0	-0.0	0.0	0.0	-0.0	0.0	0.0	-0.0	0.0	0.0	-0.0	0.0	0.0	-0.0	0.0	0.0	-0.0	0.0	0.0	-0.0	0.0	0.0	-0.0	0.0	0.0	-0.0	0.0	0.0	-0.0	0.0	0.0	-0.0	0.0	0.0	-0.0	0.0	0.0	-169.775853279	-20.6822040771	-108.377273522	-36.2950356616	22.8389233736	-37.9758147705	-7.01552135018e-06	43.3365880522	9.00097099959e-06	109.972443304	9.47959067617	-3.95888405111	-0.0	0.0	0.0	-0.0	0.0	0.0	-0.0	0.0	0.0	-0.0	0.0	0.0	-0.0	0.0	0.0	-0.0	0.0	0.0	-0.0	0.0	0.0	-0.0	0.0	0.0	-0.0	0.0	0.0	-0.0	0.0	0.0	-0.0	0.0	0.0	-0.0	0.0	0.0	-0.0	0.0	0.0	-0.0	0.0	0.0	-0.0	0.0	0.0	15.6027518665	21.4926077272	177.555016894	9.99833971408e-07	37.4883015277	6.99989226839e-06	0.674448278536	-14.7994527945	4.26537667596	-0.0	0.0	0.0	-16.236472284	-5.87204905949	-179.897596508	-3.99973943173e-06	12.9749607595	1.99998391854e-06	0.632137124023	-20.8688231746	0.954609113339	-0.0	0.0	0.0	
